<svg data-v-fde0c5aa="" xmlns="http://www.w3.org/2000/svg" viewBox="0 0 300 300" class="iconLeft"><!----><defs data-v-fde0c5aa=""><!----></defs><rect data-v-fde0c5aa="" fill="#E6E6F1" x="0" y="0" width="300px" height="300px" class="logo-background-square"></rect><defs data-v-fde0c5aa=""><!----></defs><g data-v-fde0c5aa="" id="042c1f4a-1708-482e-a801-7677a05356f7" fill="#090A35" transform="matrix(2.918543713124674,0,0,2.918543713124674,91.54165553374258,124.97348752078892)"><path d="M4.33 7.84L4.69 7.97Q5.61 8.27 6.29 8.60Q6.96 8.93 7.48 9.58Q7.99 10.22 7.99 11.19L7.99 11.19Q7.99 12.77 6.92 13.46Q5.85 14.15 4.10 14.15L4.10 14.15Q1.20 14.15 0.20 12.03L0.20 12.03L2.30 10.99Q2.55 11.55 3.00 11.87Q3.46 12.19 4.10 12.19L4.10 12.19Q4.66 12.19 5.04 11.94Q5.42 11.68 5.42 11.24L5.42 11.24Q5.42 10.53 3.91 10.00L3.91 10.00Q3.09 9.72 2.44 9.39Q1.79 9.06 1.25 8.39Q0.70 7.71 0.70 6.72L0.70 6.72Q0.70 5.38 1.75 4.75Q2.80 4.12 4.40 4.12L4.40 4.12Q5.66 4.12 6.61 4.68Q7.56 5.25 7.90 6.22L7.90 6.22L6.01 7.24Q5.77 6.68 5.35 6.38Q4.93 6.08 4.40 6.08L4.40 6.08Q3.84 6.08 3.56 6.28Q3.29 6.48 3.29 6.78L3.29 6.78Q3.29 7.04 3.55 7.35Q3.81 7.66 4.33 7.84L4.33 7.84ZM15.74 8.95L13.43 8.95L13.43 11.21Q13.43 11.83 13.59 12.05Q13.75 12.28 14.04 12.28L14.04 12.28Q14.43 12.28 15.00 12.17Q15.57 12.05 15.62 12.01L15.62 12.01L15.62 14Q15.40 14.03 14.83 14.09Q14.25 14.15 13.66 14.15L13.66 14.15Q12.36 14.15 11.65 13.78Q10.93 13.41 10.93 12.29L10.93 12.29L10.93 8.95L8.97 8.95L8.97 7L10.93 7L10.93 4.48L13.43 4.48L13.43 7L15.74 7L15.74 8.95ZM25.19 12.98L23.74 14.35L22.88 13.50Q22.02 14.15 20.86 14.15L20.86 14.15Q19.24 14.15 18.44 13.59Q17.64 13.02 17.64 11.86L17.64 11.86Q17.64 10.68 18.46 10.13Q19.28 9.58 21.14 9.58L21.14 9.58L21.80 9.58Q21.78 9.21 21.62 9.00Q21.45 8.78 21 8.78L21 8.78Q20.36 8.78 19.98 8.94Q19.60 9.10 19.31 9.42L19.31 9.42L17.82 8.01Q18.47 7.36 19.29 7.10Q20.10 6.83 21.17 6.83L21.17 6.83Q22.55 6.83 23.43 7.40Q24.30 7.97 24.30 9.03L24.30 9.03L24.30 12.10L25.19 12.98ZM20.05 11.82Q20.05 11.94 20.09 12.03Q20.13 12.11 20.36 12.18Q20.59 12.25 21.10 12.25L21.10 12.25Q21.52 12.25 21.80 12.10L21.80 12.10L21.80 11.14L21.62 11.14Q20.05 11.14 20.05 11.82L20.05 11.82ZM33.24 12.60Q32.75 13.44 31.96 13.80Q31.16 14.15 29.92 14.15L29.92 14.15Q28.29 14.15 27.26 13.27Q26.22 12.38 26.22 10.49L26.22 10.49Q26.22 8.58 27.25 7.71Q28.28 6.83 29.92 6.83L29.92 6.83Q31.18 6.83 32.00 7.20Q32.82 7.57 33.31 8.48L33.31 8.48L31.11 9.72Q31.00 9.28 30.68 9.04Q30.37 8.79 29.88 8.79L29.88 8.79Q29.48 8.79 29.25 8.93Q29.02 9.07 28.91 9.44Q28.80 9.80 28.80 10.49L28.80 10.49Q28.80 11.48 29.05 11.84Q29.30 12.19 29.88 12.19L29.88 12.19Q30.34 12.19 30.60 12.00Q30.86 11.80 31.01 11.47L31.01 11.47L33.24 12.60ZM39.33 14L37.07 11.35L36.67 11.35L36.67 14L34.17 14L34.17 2.80L36.67 2.80L36.67 9.39L36.99 9.39L39.09 7L42.03 7L38.91 10.33L42.27 14L39.33 14ZM46.42 6.83Q48.10 6.83 48.97 7.85Q49.83 8.88 49.83 10.82L49.83 10.82Q49.83 11.12 49.81 11.27L49.81 11.27L45.33 11.27Q45.40 11.73 45.65 11.96Q45.91 12.19 46.44 12.19L46.44 12.19Q46.91 12.19 47.17 12.07Q47.42 11.94 47.63 11.62L47.63 11.62L49.57 12.70Q49.18 13.34 48.32 13.75Q47.46 14.15 46.38 14.15L46.38 14.15Q44.67 14.15 43.79 13.15Q42.91 12.14 42.91 10.49L42.91 10.49Q42.91 9.42 43.32 8.60Q43.72 7.77 44.51 7.30Q45.30 6.83 46.42 6.83L46.42 6.83ZM45.36 9.81L47.64 9.81Q47.67 9.38 47.37 9.06Q47.07 8.75 46.52 8.75L46.52 8.75Q46.03 8.75 45.74 9.01Q45.46 9.27 45.36 9.81L45.36 9.81ZM55.23 2.80L57.72 2.80L57.72 14L56.04 14L55.61 13.47Q54.96 14.15 54.14 14.15L54.14 14.15Q52.61 14.15 51.74 13.25Q50.88 12.35 50.88 10.49L50.88 10.49Q50.88 6.85 54.00 6.85L54.00 6.85Q54.67 6.85 55.23 7.24L55.23 7.24L55.23 2.80ZM54.60 12.19Q55.01 12.19 55.23 11.94L55.23 11.94L55.23 9.20Q54.95 8.81 54.46 8.81L54.46 8.81Q53.84 8.81 53.61 9.23Q53.37 9.66 53.37 10.49L53.37 10.49Q53.37 11.28 53.67 11.74Q53.97 12.19 54.60 12.19L54.60 12.19Z"></path></g><defs data-v-fde0c5aa=""><linearGradient data-v-fde0c5aa="" gradientTransform="rotate(25)" id="185f00f9-8707-41bb-bea1-65a03266eb8e" x1="0%" y1="0%" x2="100%" y2="0%"><stop data-v-fde0c5aa="" offset="0%" stop-color="#181B80" stop-opacity="1"></stop><stop data-v-fde0c5aa="" offset="100%" stop-color="#181ED9" stop-opacity="1"></stop></linearGradient></defs><g data-v-fde0c5aa="" id="343587c2-e11d-413c-b148-6e98b9d690f2" stroke="none" fill="url(#185f00f9-8707-41bb-bea1-65a03266eb8e)" transform="matrix(0.5169432369407725,0,0,0.5169432369407725,33.28852605734101,124.2011714306157)"><g clip-rule="evenodd"><path d="M12.983 10.59l17.018 88.223-5.872-59.049 29.021-1.892-.054-9.883L64.549 1 53.622 18.977z"></path><path d="M59.389 54.548l5.16-53.541-8.74 39.716-19.612 1.045 1.57 20.462-7.766 36.583 12.057-39.899z"></path><path d="M62.8 67.182l.549-10.453-15.979 3.755-.032 11.797-17.337 26.532 21.68-27.616zM65.711 62.394l14.841-4.731 1.509-12.532-15.899 2.095zM72.07 44.502l10.988-1.417 1.581-10.278-8.079-.373L64.549 1l8.43 30.967z"></path><path d="M87.413 31.294l1.256-9.506-9.544-2.694L64.549 1l14.483 22.437-.422 7z"></path></g></g><!----></svg>